<svg width="32" height="32" viewBox="0 0 32 32" fill="none" xmlns="http://www.w3.org/2000/svg">
<path d="M7.06187 23.76V5.18401H19.1156C21.3998 5.18401 22.918 5.7711 23.6702 6.94529C24.4224 8.11947 24.7985 9.52299 24.7985 11.1558C24.7985 12.7612 24.3995 14.1097 23.6014 15.2013C22.8033 16.2929 21.2209 16.8387 18.8542 16.8387H13.364V23.76H7.06187ZM18.4552 23.76L14.2996 15.2013L20.5192 14.9949L25.2664 23.76H18.4552ZM13.364 13.0272H17.0104C17.5791 13.0272 17.969 12.885 18.18 12.6006C18.3909 12.3071 18.4964 11.853 18.4964 11.2384C18.4964 10.6146 18.3864 10.156 18.1662 9.86241C17.9552 9.56886 17.5699 9.42209 17.0104 9.42209H13.364V13.0272Z" fill="white"/>
</svg>
