<svg width="1000" height="1000" viewBox="0 0 1000 1000" fill="none" xmlns="http://www.w3.org/2000/svg">
<path d="M220.68 739V158.5H597.36C668.74 158.5 716.183 176.847 739.69 213.54C763.197 250.233 774.95 294.093 774.95 345.12C774.95 395.287 762.48 437.427 737.54 471.54C712.6 505.653 663.15 522.71 589.19 522.71H417.62V739H220.68ZM576.72 739L446.86 471.54L641.22 465.09L789.57 739H576.72ZM417.62 403.6H531.57C549.343 403.6 561.527 399.157 568.12 390.27C574.713 381.097 578.01 366.907 578.01 347.7C578.01 328.207 574.57 313.873 567.69 304.7C561.097 295.527 549.057 290.94 531.57 290.94H417.62V403.6Z" fill="white"/>
</svg>
